<svg xmlns="http://www.w3.org/2000/svg" width="873" height="875" viewBox="0 0 873 875">
  <g fill-rule="evenodd" transform="translate(.793 .532)">
    <path d="M595.694363 470.392553C595.694363 470.392553 623.587852 470.392553 623.587852 470.392553 617.602674 503.544284 603.361973 533.540558 580.865747 560.381373L617.740505 597.86726 633.882346 566.645026 675.028539 675.204995 566.218089 633.858469 595.694363 617.83574 560.600258 581.627417C528.618937 606.12612 498.032968 620.136522 468.842352 623.658623 468.842352 623.658623 468.842352 595.938305 468.842352 595.938305 502.574141 590.467225 529.572332 569.525063 540.29246 561.259172 525.882619 544.388301 515.556138 527.426343 509.313017 510.373296 532.781915 519.819748 549.877662 529.897131 560.600258 540.605444 577.997355 523.72519 589.889366 492.84529 595.694363 470.392553zM496.602174 436.467541C516.816449 428.367893 536.165259 423.4076 554.648604 421.58666 554.648604 421.58666 628.319077 421.58666 775.660022 421.58666L764.698816 387.789828 871.766116 436.467541 765.654317 484.02555 775.660022 450.91959C628.319077 450.91959 554.648604 450.91959 554.648604 450.91959 532.819257 449.290113 513.470447 444.472763 496.602174 436.467541z"/>
    <path d="M248.602174,686.467541 C268.816449,678.367893 288.165259,673.4076 306.648604,671.58666 C306.648604,671.58666 380.319077,671.58666 527.660022,671.58666 L516.698816,637.789828 L623.766116,686.467541 L517.654317,734.02555 L527.660022,700.91959 C380.319077,700.91959 306.648604,700.91959 306.648604,700.91959 C284.819257,699.290113 265.470447,694.472763 248.602174,686.467541 Z" transform="rotate(90 436.184 685.908)"/>
    <path d="M324.589589,197.820556 C324.589589,197.820556 352.483077,197.820556 352.483077,197.820556 C346.4979,230.972287 332.257199,260.96856 309.760973,287.809376 L346.635731,325.295263 L362.777572,294.073029 L403.923764,402.632997 L295.113315,361.286472 L324.589589,345.263742 L289.495484,309.055419 C257.514162,333.554123 226.928194,347.564525 197.737578,351.086625 C197.737578,351.086625 197.737578,323.366308 197.737578,323.366308 C231.469367,317.895228 258.467558,296.953066 269.187686,288.687175 C254.777845,271.816304 244.451364,254.854345 238.208242,237.801299 C261.677141,247.247751 278.772888,257.325133 289.495484,268.033446 C306.892581,251.153193 318.784591,220.273292 324.589589,197.820556 Z" transform="rotate(-180 300.83 300.227)"/>
    <path d="M323.855977,469.658942 C323.855977,469.658942 351.749466,469.658942 351.749466,469.658942 C345.764288,502.810673 331.523587,532.806946 309.027361,559.647762 L345.902119,597.133649 L362.04396,565.911414 L403.190153,674.471383 L294.379704,633.124857 L323.855977,617.102128 L288.761873,580.893805 C256.780551,605.392508 226.194582,619.402911 197.003966,622.925011 C197.003966,622.925011 197.003966,595.204694 197.003966,595.204694 C230.735756,589.733614 257.733946,568.791451 268.454074,560.52556 C254.044233,543.65469 243.717752,526.692731 237.474631,509.639685 C260.943529,519.086136 278.039277,529.163519 288.761873,539.871832 C306.15897,522.991579 318.05098,492.111678 323.855977,469.658942 Z" transform="rotate(90 300.097 572.065)"/>
    <path d="M596.427975,198.554167 C596.427975,198.554167 624.321463,198.554167 624.321463,198.554167 C618.336286,231.705898 604.095584,261.702172 581.599359,288.542987 L618.474117,326.028874 L634.615958,294.80664 L675.76215,403.366609 L566.951701,362.020083 L596.427975,345.997354 L561.33387,309.789031 C529.352548,334.287734 498.766579,348.298136 469.575964,351.820237 C469.575964,351.820237 469.575964,324.09992 469.575964,324.09992 C503.307753,318.62884 530.305944,297.686677 541.026072,289.420786 C526.61623,272.549915 516.289749,255.587957 510.046628,238.534911 C533.515527,247.981362 550.611274,258.058745 561.33387,268.767058 C578.730967,251.886804 590.622977,221.006904 596.427975,198.554167 Z" transform="rotate(-90 572.67 300.96)"/>
    <path d="M0,436.677713 C20.2142745,428.578065 39.5630843,423.617772 58.0464295,421.796832 C58.0464295,421.796832 131.716902,421.796832 279.057848,421.796832 L268.096642,388 L375.163942,436.677713 L269.052142,484.235722 L279.057848,451.129762 C131.716902,451.129762 58.0464295,451.129762 58.0464295,451.129762 C36.2170825,449.500285 16.8682727,444.682935 0,436.677713 Z" transform="rotate(-180 187.582 436.118)"/>
    <path d="M248,188.677713 C268.214274,180.578065 287.563084,175.617772 306.046429,173.796832 C306.046429,173.796832 379.716902,173.796832 527.057848,173.796832 L516.096642,140 L623.163942,188.677713 L517.052142,236.235722 L527.057848,203.129762 C379.716902,203.129762 306.046429,203.129762 306.046429,203.129762 C284.217083,201.500285 264.868273,196.682935 248,188.677713 Z" transform="rotate(-90 435.582 188.118)"/>
  </g>
</svg>
