{
    "asset" : {
        "generator" : "Khronos glTF Blender I/O v1.5.17",
        "version" : "2.0"
    },
    "scene" : 0,
    "scenes" : [
        {
            "name" : "Scene",
            "nodes" : [
                0,
                1,
                2,
                3,
                4,
                5,
                6
            ]
        }
    ],
    "nodes" : [
        {
            "mesh" : 0,
            "name" : "Top_Ring",
            "translation" : [
                0.007337793707847595,
                5.7257184982299805,
                -0.011779308319091797
            ]
        },
        {
            "mesh" : 1,
            "name" : "Bottom_Ring",
            "scale" : [
                0.7769644856452942,
                0.7769644856452942,
                0.7769644856452942
            ],
            "translation" : [
                -0.012463785707950592,
                -0.020717382431030273,
                -0.033405303955078125
            ]
        },
        {
            "mesh" : 2,
            "name" : "Horizontal_Knobs",
            "scale" : [
                0.2083672285079956,
                0.2083672285079956,
                0.11393337696790695
            ],
            "translation" : [
                -0.03226535767316818,
                2.8538978099823,
                -9.142130851745605
            ]
        },
        {
            "mesh" : 3,
            "name" : "Inner_Ring",
            "scale" : [
                1,
                1,
                -0.10633647441864014
            ],
            "translation" : [
                -0.03226536512374878,
                2.8538978099823,
                -9.142130851745605
            ]
        },
        {
            "mesh" : 4,
            "name" : "Portal",
            "rotation" : [
                0.7071067690849304,
                0,
                0,
                0.7071068286895752
            ],
            "scale" : [
                0.9500013589859009,
                0.9500013589859009,
                0.9500013589859009
            ],
            "translation" : [
                0.015258446335792542,
                2.8538978099823,
                -0.02767285704612732
            ]
        },
        {
            "mesh" : 5,
            "name" : "Vertical_Knobs",
            "rotation" : [
                0,
                0,
                -0.7071067094802856,
                0.7071068286895752
            ],
            "scale" : [
                0.2083672285079956,
                0.2083672285079956,
                0.11393337696790695
            ],
            "translation" : [
                -0.032265353947877884,
                2.853898048400879,
                -9.142130851745605
            ]
        },
        {
            "mesh" : 6,
            "name" : "Ground",
            "scale" : [
                6.066396236419678,
                6.066396236419678,
                6.066396236419678
            ],
            "translation" : [
                0.0021814554929733276,
                -0.12722015380859375,
                -0.020234107971191406
            ]
        }
    ],
    "materials" : [
        {
            "doubleSided" : true,
            "name" : "Brass",
            "pbrMetallicRoughness" : {
                "baseColorFactor" : [
                    0.799103319644928,
                    0.35153260827064514,
                    0.07818744331598282,
                    1
                ],
                "metallicFactor" : 0,
                "roughnessFactor" : 0.5
            }
        },
        {
            "doubleSided" : true,
            "name" : "Material",
            "pbrMetallicRoughness" : {
                "baseColorFactor" : [
                    0.799103319644928,
                    0.35153260827064514,
                    0.07818744331598282,
                    1
                ],
                "metallicFactor" : 0,
                "roughnessFactor" : 0.4000000059604645
            }
        },
        {
            "alphaMode" : "BLEND",
            "name" : "Porttal",
            "pbrMetallicRoughness" : {
                "baseColorFactor" : [
                    0.017909880727529526,
                    0.27454671263694763,
                    0.8000000715255737,
                    0.6363636255264282
                ],
                "metallicFactor" : 0,
                "roughnessFactor" : 0.5
            }
        },
        {
            "alphaMode" : "BLEND",
            "name" : "Ground",
            "pbrMetallicRoughness" : {
                "baseColorTexture" : {
                    "index" : 0
                },
                "metallicFactor" : 0,
                "roughnessFactor" : 0.5
            }
        }
    ],
    "meshes" : [
        {
            "name" : "Torus",
            "primitives" : [
                {
                    "attributes" : {
                        "POSITION" : 0,
                        "NORMAL" : 1,
                        "TEXCOORD_0" : 2
                    },
                    "indices" : 3,
                    "material" : 0
                }
            ]
        },
        {
            "name" : "Torus.002",
            "primitives" : [
                {
                    "attributes" : {
                        "POSITION" : 4,
                        "NORMAL" : 5,
                        "TEXCOORD_0" : 6
                    },
                    "indices" : 7,
                    "material" : 0
                }
            ]
        },
        {
            "name" : "Cube.001",
            "primitives" : [
                {
                    "attributes" : {
                        "POSITION" : 8,
                        "NORMAL" : 9,
                        "TEXCOORD_0" : 10
                    },
                    "indices" : 11,
                    "material" : 0
                }
            ]
        },
        {
            "name" : "Cube",
            "primitives" : [
                {
                    "attributes" : {
                        "POSITION" : 12,
                        "NORMAL" : 13,
                        "TEXCOORD_0" : 14
                    },
                    "indices" : 15,
                    "material" : 1
                }
            ]
        },
        {
            "name" : "Circle",
            "primitives" : [
                {
                    "attributes" : {
                        "POSITION" : 16,
                        "NORMAL" : 17,
                        "TEXCOORD_0" : 18
                    },
                    "indices" : 19,
                    "material" : 2
                }
            ]
        },
        {
            "name" : "Cube.002",
            "primitives" : [
                {
                    "attributes" : {
                        "POSITION" : 20,
                        "NORMAL" : 21,
                        "TEXCOORD_0" : 22
                    },
                    "indices" : 23,
                    "material" : 0
                }
            ]
        },
        {
            "name" : "Plane",
            "primitives" : [
                {
                    "attributes" : {
                        "POSITION" : 24,
                        "NORMAL" : 25,
                        "TEXCOORD_0" : 26
                    },
                    "indices" : 27,
                    "material" : 3
                }
            ]
        }
    ],
    "textures" : [
        {
            "sampler" : 0,
            "source" : 0
        }
    ],
    "images" : [
        {
            "bufferView" : 28,
            "mimeType" : "image/png",
            "name" : "groundTexture"
        }
    ],
    "accessors" : [
        {
            "bufferView" : 0,
            "componentType" : 5126,
            "count" : 1152,
            "max" : [
                1.6018238067626953,
                0.11730798333883286,
                1.5774885416030884
            ],
            "min" : [
                -1.6007071733474731,
                -0.11730798333883286,
                -1.5774884223937988
            ],
            "type" : "VEC3"
        },
        {
            "bufferView" : 1,
            "componentType" : 5126,
            "count" : 1152,
            "type" : "VEC3"
        },
        {
            "bufferView" : 2,
            "componentType" : 5126,
            "count" : 1152,
            "type" : "VEC2"
        },
        {
            "bufferView" : 3,
            "componentType" : 5123,
            "count" : 1728,
            "type" : "SCALAR"
        },
        {
            "bufferView" : 4,
            "componentType" : 5126,
            "count" : 3456,
            "max" : [
                6.359648704528809,
                0.11730798333883286,
                6.348888874053955
            ],
            "min" : [
                -6.359600067138672,
                -0.11730798333883286,
                -6.348889350891113
            ],
            "type" : "VEC3"
        },
        {
            "bufferView" : 5,
            "componentType" : 5126,
            "count" : 3456,
            "type" : "VEC3"
        },
        {
            "bufferView" : 6,
            "componentType" : 5126,
            "count" : 3456,
            "type" : "VEC2"
        },
        {
            "bufferView" : 7,
            "componentType" : 5123,
            "count" : 5184,
            "type" : "SCALAR"
        },
        {
            "bufferView" : 8,
            "componentType" : 5126,
            "count" : 1472,
            "max" : [
                15.555462837219238,
                0.8611161708831787,
                81.26704406738281
            ],
            "min" : [
                -15.555462837219238,
                -0.6520424485206604,
                79.01591491699219
            ],
            "type" : "VEC3"
        },
        {
            "bufferView" : 9,
            "componentType" : 5126,
            "count" : 1472,
            "type" : "VEC3"
        },
        {
            "bufferView" : 10,
            "componentType" : 5126,
            "count" : 1472,
            "type" : "VEC2"
        },
        {
            "bufferView" : 11,
            "componentType" : 5123,
            "count" : 2208,
            "type" : "SCALAR"
        },
        {
            "bufferView" : 12,
            "componentType" : 5126,
            "count" : 4736,
            "max" : [
                2.9344584941864014,
                2.5862715244293213,
                -85.05694580078125
            ],
            "min" : [
                -2.9344584941864014,
                -2.5862715244293213,
                -86.89078521728516
            ],
            "type" : "VEC3"
        },
        {
            "bufferView" : 13,
            "componentType" : 5126,
            "count" : 4736,
            "type" : "VEC3"
        },
        {
            "bufferView" : 14,
            "componentType" : 5126,
            "count" : 4736,
            "type" : "VEC2"
        },
        {
            "bufferView" : 15,
            "componentType" : 5123,
            "count" : 7104,
            "type" : "SCALAR"
        },
        {
            "bufferView" : 16,
            "componentType" : 5126,
            "count" : 206,
            "max" : [
                2.314591407775879,
                0.05271611362695694,
                2.298391342163086
            ],
            "min" : [
                -2.314591646194458,
                -0.008297909051179886,
                -2.319999933242798
            ],
            "type" : "VEC3"
        },
        {
            "bufferView" : 17,
            "componentType" : 5126,
            "count" : 206,
            "type" : "VEC3"
        },
        {
            "bufferView" : 18,
            "componentType" : 5126,
            "count" : 206,
            "type" : "VEC2"
        },
        {
            "bufferView" : 19,
            "componentType" : 5123,
            "count" : 276,
            "type" : "SCALAR"
        },
        {
            "bufferView" : 20,
            "componentType" : 5126,
            "count" : 1472,
            "max" : [
                13.893071174621582,
                0.8794784545898438,
                81.26704406738281
            ],
            "min" : [
                -13.893070220947266,
                -0.6336802244186401,
                79.01591491699219
            ],
            "type" : "VEC3"
        },
        {
            "bufferView" : 21,
            "componentType" : 5126,
            "count" : 1472,
            "type" : "VEC3"
        },
        {
            "bufferView" : 22,
            "componentType" : 5126,
            "count" : 1472,
            "type" : "VEC2"
        },
        {
            "bufferView" : 23,
            "componentType" : 5123,
            "count" : 2208,
            "type" : "SCALAR"
        },
        {
            "bufferView" : 24,
            "componentType" : 5126,
            "count" : 4,
            "max" : [
                1,
                0,
                1
            ],
            "min" : [
                -1,
                0,
                -1
            ],
            "type" : "VEC3"
        },
        {
            "bufferView" : 25,
            "componentType" : 5126,
            "count" : 4,
            "type" : "VEC3"
        },
        {
            "bufferView" : 26,
            "componentType" : 5126,
            "count" : 4,
            "type" : "VEC2"
        },
        {
            "bufferView" : 27,
            "componentType" : 5123,
            "count" : 6,
            "type" : "SCALAR"
        }
    ],
    "bufferViews" : [
        {
            "buffer" : 0,
            "byteLength" : 13824,
            "byteOffset" : 0
        },
        {
            "buffer" : 0,
            "byteLength" : 13824,
            "byteOffset" : 13824
        },
        {
            "buffer" : 0,
            "byteLength" : 9216,
            "byteOffset" : 27648
        },
        {
            "buffer" : 0,
            "byteLength" : 3456,
            "byteOffset" : 36864
        },
        {
            "buffer" : 0,
            "byteLength" : 41472,
            "byteOffset" : 40320
        },
        {
            "buffer" : 0,
            "byteLength" : 41472,
            "byteOffset" : 81792
        },
        {
            "buffer" : 0,
            "byteLength" : 27648,
            "byteOffset" : 123264
        },
        {
            "buffer" : 0,
            "byteLength" : 10368,
            "byteOffset" : 150912
        },
        {
            "buffer" : 0,
            "byteLength" : 17664,
            "byteOffset" : 161280
        },
        {
            "buffer" : 0,
            "byteLength" : 17664,
            "byteOffset" : 178944
        },
        {
            "buffer" : 0,
            "byteLength" : 11776,
            "byteOffset" : 196608
        },
        {
            "buffer" : 0,
            "byteLength" : 4416,
            "byteOffset" : 208384
        },
        {
            "buffer" : 0,
            "byteLength" : 56832,
            "byteOffset" : 212800
        },
        {
            "buffer" : 0,
            "byteLength" : 56832,
            "byteOffset" : 269632
        },
        {
            "buffer" : 0,
            "byteLength" : 37888,
            "byteOffset" : 326464
        },
        {
            "buffer" : 0,
            "byteLength" : 14208,
            "byteOffset" : 364352
        },
        {
            "buffer" : 0,
            "byteLength" : 2472,
            "byteOffset" : 378560
        },
        {
            "buffer" : 0,
            "byteLength" : 2472,
            "byteOffset" : 381032
        },
        {
            "buffer" : 0,
            "byteLength" : 1648,
            "byteOffset" : 383504
        },
        {
            "buffer" : 0,
            "byteLength" : 552,
            "byteOffset" : 385152
        },
        {
            "buffer" : 0,
            "byteLength" : 17664,
            "byteOffset" : 385704
        },
        {
            "buffer" : 0,
            "byteLength" : 17664,
            "byteOffset" : 403368
        },
        {
            "buffer" : 0,
            "byteLength" : 11776,
            "byteOffset" : 421032
        },
        {
            "buffer" : 0,
            "byteLength" : 4416,
            "byteOffset" : 432808
        },
        {
            "buffer" : 0,
            "byteLength" : 48,
            "byteOffset" : 437224
        },
        {
            "buffer" : 0,
            "byteLength" : 48,
            "byteOffset" : 437272
        },
        {
            "buffer" : 0,
            "byteLength" : 32,
            "byteOffset" : 437320
        },
        {
            "buffer" : 0,
            "byteLength" : 12,
            "byteOffset" : 437352
        },
        {
            "buffer" : 0,
            "byteLength" : 161897,
            "byteOffset" : 437364
        }
    ],
    "samplers" : [
        {
            "magFilter" : 9729,
            "minFilter" : 9987
        }
    ],
    "buffers" : [
        {
            "byteLength" : 599264,
            "uri" : "data:application/octet-stream;base64,"
        }
    ]
}
